mtllib hl1_test.mtl
# vertices
v -416 -16 -416
v -416 -16 64
v -416 16 64
v -416 16 -416
v 64 16 64
v 64 -16 64
v 64 -16 -416
v 64 16 -416
v -16 336 -0
v -16 16 -0
v -16 16 64
v -16 336 64
v 0 16 -16
v 0 336 -16
v 64 336 64
v 64 16 64
v 64 16 -16
v 64 336 -16
v -416 16 -16
v -416 16 64
v -416 336 64
v -416 336 -16
v -336 336 64
v -336 16 64
v -352 16 -16
v -336 16 -0
v -336 336 -0
v -352 336 -16
v -416 16 -416
v -416 16 -336
v -416 336 -336
v -416 336 -416
v -352 336 -336
v -352 16 -336
v -336 16 -352
v -336 16 -416
v -336 336 -416
v -336 336 -352
v -16 16 -416
v -16 16 -352
v -16 336 -352
v -16 336 -416
v 0 16 -336
v 0 336 -336
v 64 336 -336
v 64 16 -336
v 64 16 -416
v 64 336 -416

# texture coordinates
vt -110 -16
vt 18.000001907348633 -16
vt 18.000001907348633 16
vt -110 16
vt -18.000001907348633 -18.000001907348633
vt 110 -18.000001907348633
vt 110 110
vt -18.000001907348633 110
vt 18.000001907348633 110
vt -110 110
vt -110 -18.000001907348633
vt 18.000001907348633 -18.000001907348633
vt -18.000001907348633 -16
vt 110 -16
vt 110 16
vt -18.000001907348633 16
vt 0 336
vt 0 16
vt 64 16
vt 64 336
vt -11.313708305358887 16
vt 11.313708305358887 16
vt 11.313708305358887 336
vt -11.313708305358887 336
vt -16 336
vt -16 16
vt -64 -64
vt 16 -64
vt 16 -0
vt -64 16
vt -16 -0
vt -16 -64
vt 64 -64
vt -64 336
vt 16 336
vt 16 16
vt -336 336
vt -416 336
vt -416 16
vt -336 16
vt -64 -336
vt -64 -416
vt 16 -416
vt 16 -352
vt -6.1722199887984802e-14 -336
vt 6.1722199887984802e-14 -336
vt -16 -352
vt -16 -416
vt 64 -416
vt 64 -336
vt 352 16
vt 416 16
vt 416 336
vt 352 336
vt 237.68629455566406 16
vt 260.313720703125 16
vt 260.313720703125 336
vt 237.68629455566406 336
vt -6.1722199887984802e-14 16
vt -6.1722199887984802e-14 336
vt -352 336
vt -352 16
vt -336 -352
vt -352 -336
vt -416 -336
vt -416 -416
vt -336 -416
vt 336 -416
vt 416 -416
vt 416 -336
vt 352 -336
vt 336 -352
vt 336 16
vt 336 336
vt 10.313720703125 336
vt -12.313695907592773 336
vt -12.313695907592773 16
vt 10.313720703125 16
vt -259.31369018554688 336
vt -259.31369018554688 16
vt -236.68626403808594 16
vt -236.68626403808594 336
vt -1.8516659288769083e-13 336
vt -1.8516659288769083e-13 16
vt -336 -64
vt -336 1.8516659288769083e-13
vt -416 -64
vt 1.234443997759696e-13 -336

# face normals
vn -1 0 -0
vn 0 0 1
vn 0 -1 -0
vn 0 1 -0
vn 0 0 -1
vn 1 0 -0
vn -0.70710678118654746 0 -0.70710678118654746
vn 0.70710678118654746 -0 -0.70710678118654746
vn 0.70710678118654746 0 0.70710678118654746
vn -0.70710678118654746 0 0.70710678118654746

# objects
o entity0_brush0
usemtl __TB_empty
f 1/1/1 2/2/1 3/3/1 4/4/1
usemtl __TB_empty
f 5/3/2 3/4/2 2/1/2 6/2/2
usemtl __TB_empty
f 6/5/3 2/6/3 1/7/3 7/8/3
usemtl __TB_empty
f 8/9/4 4/10/4 3/11/4 5/12/4
usemtl __TB_empty
f 7/13/5 1/14/5 4/15/5 8/16/5
usemtl __TB_empty
f 8/15/6 5/16/6 6/13/6 7/14/6

o entity0_brush1
usemtl __TB_empty
f 9/17/1 10/18/1 11/19/1 12/20/1
usemtl __TB_empty
f 13/21/7 10/22/7 9/23/7 14/24/7
usemtl __TB_empty
f 15/20/2 12/25/2 11/26/2 16/19/2
usemtl __TB_empty
f 16/27/3 11/28/3 10/29/3 13/18/3 17/30/3
usemtl __TB_empty
f 18/19/4 14/18/4 9/31/4 12/32/4 15/33/4
usemtl __TB_empty
f 17/30/5 13/18/5 14/17/5 18/34/5
usemtl __TB_empty
f 18/35/6 15/34/6 16/30/6 17/36/6

o entity0_brush2
usemtl __TB_empty
f 19/26/1 20/19/1 21/20/1 22/25/1
usemtl __TB_empty
f 23/37/2 21/38/2 20/39/2 24/40/2
usemtl __TB_empty
f 24/41/3 20/42/3 19/43/3 25/44/3 26/45/3
usemtl __TB_empty
f 27/46/4 28/47/4 22/48/4 21/49/4 23/50/4
usemtl __TB_empty
f 25/51/5 19/52/5 22/53/5 28/54/5
usemtl __TB_empty
f 26/55/8 25/56/8 28/57/8 27/58/8
usemtl __TB_empty
f 26/59/6 27/60/6 23/34/6 24/30/6

o entity0_brush3
usemtl __TB_empty
f 29/39/1 30/40/1 31/37/1 32/38/1
usemtl __TB_empty
f 33/61/2 31/38/2 30/39/2 34/62/2
usemtl __TB_empty
f 35/63/3 34/64/3 30/65/3 29/66/3 36/67/3
usemtl __TB_empty
f 37/68/4 32/69/4 31/70/4 33/71/4 38/72/4
usemtl __TB_empty
f 36/73/5 29/52/5 32/53/5 37/74/5
usemtl __TB_empty
f 38/75/9 33/76/9 34/77/9 35/78/9
usemtl __TB_empty
f 38/54/6 35/51/6 36/52/6 37/53/6

o entity0_brush4
usemtl __TB_empty
f 39/39/1 40/62/1 41/61/1 42/38/1
usemtl __TB_empty
f 41/79/10 40/80/10 43/81/10 44/82/10
usemtl __TB_empty
f 45/20/2 44/83/2 43/84/2 46/19/2
usemtl __TB_empty
f 46/85/3 43/86/3 40/62/3 39/39/3 47/87/3
usemtl __TB_empty
f 48/42/4 42/43/4 41/44/4 44/88/4 45/41/4
usemtl __TB_empty
f 47/30/5 39/36/5 42/35/5 48/34/5
usemtl __TB_empty
f 48/53/6 45/74/6 46/73/6 47/52/6

