{
  "accessors": [
    {
      "bufferView": 1,
      "componentType": 5126,
      "count": 527,
      "max": [
        46.861019134521484,
        1.1710900068283081,
        8.1141700744628906
      ],
      "min": [
        -10.544363975524902,
        -1.5967600345611572,
        -0.98627328872680664
      ],
      "type": "VEC3"
    },
    {
      "bufferView": 1,
      "byteOffset": 6324,
      "componentType": 5126,
      "count": 527,
      "max": [
        1.0000050067901611,
        1,
        1
      ],
      "min": [
        -1.0000050067901611,
        -1,
        -1
      ],
      "type": "VEC3"
    },
    {
      "bufferView": 0,
      "componentType": 5125,
      "count": 960,
      "max": [
        526
      ],
      "min": [
        0
      ],
      "type": "SCALAR"
    },
    {
      "bufferView": 1,
      "byteOffset": 12648,
      "componentType": 5126,
      "count": 90,
      "max": [
        -0.51101416349411011,
        0.67606997489929199,
        2.6077437400817871
      ],
      "min": [
        -0.80524063110351562,
        -0.65841001272201538,
        0.55190205574035645
      ],
      "type": "VEC3"
    },
    {
      "bufferView": 1,
      "byteOffset": 13728,
      "componentType": 5126,
      "count": 90,
      "max": [
        0.14298386871814728,
        0.99975937604904175,
        0.83741629123687744
      ],
      "min": [
        -0.99952077865600586,
        -0.99975937604904175,
        -0.83741629123687744
      ],
      "type": "VEC3"
    },
    {
      "bufferView": 0,
      "byteOffset": 3840,
      "componentType": 5125,
      "count": 144,
      "max": [
        89
      ],
      "min": [
        0
      ],
      "type": "SCALAR"
    },
    {
      "bufferView": 1,
      "byteOffset": 14808,
      "componentType": 5126,
      "count": 334,
      "max": [
        4.7270650863647461,
        0.65701001882553101,
        2.7506248950958252
      ],
      "min": [
        2.9807233810424805,
        -0.63207000494003296,
        0.95116549730300903
      ],
      "type": "VEC3"
    },
    {
      "bufferView": 1,
      "byteOffset": 18816,
      "componentType": 5126,
      "count": 334,
      "max": [
        0.99952101707458496,
        0.99998056888580322,
        0.84022301435470581
      ],
      "min": [
        -0.11401420086622238,
        -0.99998760223388672,
        -0.83655446767807007
      ],
      "type": "VEC3"
    },
    {
      "bufferView": 0,
      "byteOffset": 4416,
      "componentType": 5125,
      "count": 468,
      "max": [
        333
      ],
      "min": [
        0
      ],
      "type": "SCALAR"
    },
    {
      "bufferView": 1,
      "byteOffset": 22824,
      "componentType": 5126,
      "count": 783,
      "max": [
        3.1539456844329834,
        0.90530002117156982,
        2.910414457321167
      ],
      "min": [
        -0.81065982580184937,
        -0.88712000846862793,
        0.25271442532539368
      ],
      "type": "VEC3"
    },
    {
      "bufferView": 1,
      "byteOffset": 32220,
      "componentType": 5126,
      "count": 783,
      "max": [
        0.99952077865600586,
        0.99999034404754639,
        0.83906304836273193
      ],
      "min": [
        -0.99952077865600586,
        -0.99998092651367188,
        -0.83741629123687744
      ],
      "type": "VEC3"
    },
    {
      "bufferView": 0,
      "byteOffset": 6288,
      "componentType": 5125,
      "count": 1296,
      "max": [
        782
      ],
      "min": [
        0
      ],
      "type": "SCALAR"
    },
    {
      "bufferView": 1,
      "byteOffset": 41616,
      "componentType": 5126,
      "count": 854,
      "max": [
        46.757480621337891,
        1.4438600540161133,
        8.5090599060058594
      ],
      "min": [
        -22.588499069213867,
        -1.4438600540161133,
        -4.0916547775268555
      ],
      "type": "VEC3"
    },
    {
      "bufferView": 1,
      "byteOffset": 51864,
      "componentType": 5126,
      "count": 854,
      "max": [
        1,
        1.0000001192092896,
        1
      ],
      "min": [
        -1,
        -1.0000001192092896,
        -1
      ],
      "type": "VEC3"
    },
    {
      "bufferView": 0,
      "byteOffset": 11472,
      "componentType": 5125,
      "count": 1428,
      "max": [
        853
      ],
      "min": [
        0
      ],
      "type": "SCALAR"
    },
    {
      "bufferView": 1,
      "byteOffset": 62112,
      "componentType": 5126,
      "count": 1016,
      "max": [
        13.075944900512695,
        1.396090030670166,
        7.3492598533630371
      ],
      "min": [
        -16.152280807495117,
        -2.0945100784301758,
        -17.19981575012207
      ],
      "type": "VEC3"
    },
    {
      "bufferView": 1,
      "byteOffset": 74304,
      "componentType": 5126,
      "count": 1016,
      "max": [
        1,
        1,
        0.99991148710250854
      ],
      "min": [
        -1,
        -1,
        -1
      ],
      "type": "VEC3"
    },
    {
      "bufferView": 0,
      "byteOffset": 17184,
      "componentType": 5125,
      "count": 2136,
      "max": [
        1015
      ],
      "min": [
        0
      ],
      "type": "SCALAR"
    },
    {
      "bufferView": 1,
      "byteOffset": 86496,
      "componentType": 5126,
      "count": 466,
      "max": [
        32.170978546142578,
        1.5220400094985962,
        6.9060301780700684
      ],
      "min": [
        -22.156879425048828,
        -4.1462998390197754,
        1.9503599405288696
      ],
      "type": "VEC3"
    },
    {
      "bufferView": 1,
      "byteOffset": 92088,
      "componentType": 5126,
      "count": 466,
      "max": [
        1,
        1,
        1
      ],
      "min": [
        -1,
        -1,
        -1
      ],
      "type": "VEC3"
    },
    {
      "bufferView": 0,
      "byteOffset": 25728,
      "componentType": 5125,
      "count": 816,
      "max": [
        465
      ],
      "min": [
        0
      ],
      "type": "SCALAR"
    },
    {
      "bufferView": 1,
      "byteOffset": 97680,
      "componentType": 5126,
      "count": 2224,
      "max": [
        47.168571472167969,
        1.3749799728393555,
        8.7537298202514648
      ],
      "min": [
        -40.674671173095703,
        -1.3749799728393555,
        -17.362504959106445
      ],
      "type": "VEC3"
    },
    {
      "bufferView": 1,
      "byteOffset": 124368,
      "componentType": 5126,
      "count": 2224,
      "max": [
        1,
        1,
        1
      ],
      "min": [
        -1,
        -1,
        -1
      ],
      "type": "VEC3"
    },
    {
      "bufferView": 0,
      "byteOffset": 28992,
      "componentType": 5125,
      "count": 4686,
      "max": [
        2223
      ],
      "min": [
        0
      ],
      "type": "SCALAR"
    },
    {
      "bufferView": 1,
      "byteOffset": 151056,
      "componentType": 5126,
      "count": 592,
      "max": [
        48.563808441162109,
        1.3824299573898315,
        8.311039924621582
      ],
      "min": [
        -16.204229354858398,
        -1.6557999849319458,
        -2.3742198944091797
      ],
      "type": "VEC3"
    },
    {
      "bufferView": 1,
      "byteOffset": 158160,
      "componentType": 5126,
      "count": 592,
      "max": [
        1.0000050067901611,
        1,
        1
      ],
      "min": [
        -1.0000050067901611,
        -1,
        -1
      ],
      "type": "VEC3"
    },
    {
      "bufferView": 0,
      "byteOffset": 47736,
      "componentType": 5125,
      "count": 1056,
      "max": [
        591
      ],
      "min": [
        0
      ],
      "type": "SCALAR"
    },
    {
      "bufferView": 1,
      "byteOffset": 165264,
      "componentType": 5126,
      "count": 754,
      "max": [
        47.302318572998047,
        0.91960000991821289,
        7.2168102264404297
      ],
      "min": [
        -16.161239624023438,
        -0.91960000991821289,
        2.4577400684356689
      ],
      "type": "VEC3"
    },
    {
      "bufferView": 1,
      "byteOffset": 174312,
      "componentType": 5126,
      "count": 754,
      "max": [
        1,
        1,
        1
      ],
      "min": [
        -1,
        -1,
        -1
      ],
      "type": "VEC3"
    },
    {
      "bufferView": 0,
      "byteOffset": 51960,
      "componentType": 5125,
      "count": 1260,
      "max": [
        753
      ],
      "min": [
        0
      ],
      "type": "SCALAR"
    },
    {
      "bufferView": 1,
      "byteOffset": 183360,
      "componentType": 5126,
      "count": 1253,
      "max": [
        26.25408935546875,
        1.4860600233078003,
        7.9322900772094727
      ],
      "min": [
        -40.104278564453125,
        -1.4860600233078003,
        -10.997550010681152
      ],
      "type": "VEC3"
    },
    {
      "bufferView": 1,
      "byteOffset": 198396,
      "componentType": 5126,
      "count": 1253,
      "max": [
        1,
        1,
        1
      ],
      "min": [
        -1,
        -1,
        -1
      ],
      "type": "VEC3"
    },
    {
      "bufferView": 0,
      "byteOffset": 57000,
      "componentType": 5125,
      "count": 2226,
      "max": [
        1252
      ],
      "min": [
        0
      ],
      "type": "SCALAR"
    },
    {
      "bufferView": 2,
      "componentType": 5126,
      "count": 1,
      "max": [
        1,
        0,
        0,
        0,
        0,
        1,
        0,
        0,
        0,
        0,
        1,
        0,
        0,
        0,
        0,
        1
      ],
      "min": [
        1,
        0,
        0,
        0,
        0,
        1,
        0,
        0,
        0,
        0,
        1,
        0,
        0,
        0,
        0,
        1
      ],
      "type": "MAT4"
    }
  ],
  "asset": {
    "extras": {
      "author": "TastyTony (https://sketchfab.com/TastyTony)",
      "license": "CC-BY-4.0 (http://creativecommons.org/licenses/by/4.0/)",
      "source": "https://sketchfab.com/3d-models/low-poly-ak-47-type-2-a7260926fb0a40f8bba5f651b03d23f1",
      "title": "Low-Poly AK-47 Type 2"
    },
    "generator": "Sketchfab-6.84.0",
    "version": "2.0"
  },
  "bufferViews": [
    {
      "buffer": 0,
      "byteLength": 65904,
      "byteOffset": 0,
      "name": "floatBufferViews",
      "target": 34963
    },
    {
      "buffer": 0,
      "byteLength": 213432,
      "byteOffset": 65904,
      "byteStride": 12,
      "name": "floatBufferViews",
      "target": 34962
    },
    {
      "buffer": 0,
      "byteLength": 64,
      "byteOffset": 279336,
      "byteStride": 64,
      "name": "floatBufferViews"
    }
  ],
  "buffers": [
    {
      "byteLength": 279400,
      "uri": "scene.bin"
    }
  ],
  "extensionsRequired": [
    "KHR_materials_pbrSpecularGlossiness"
  ],
  "extensionsUsed": [
    "KHR_materials_pbrSpecularGlossiness"
  ],
  "materials": [
    {
      "doubleSided": true,
      "emissiveFactor": [
        0,
        0,
        0
      ],
      "extensions": {
        "KHR_materials_pbrSpecularGlossiness": {
          "diffuseFactor": [
            0.072828435552282925,
            0.072828435552282925,
            0.072828435552282925,
            1
          ],
          "glossinessFactor": 0,
          "specularFactor": [
            0,
            0,
            0
          ]
        }
      },
      "name": "Material.003"
    },
    {
      "doubleSided": true,
      "extensions": {
        "KHR_materials_pbrSpecularGlossiness": {
          "diffuseFactor": [
            1,
            1,
            1,
            1
          ],
          "glossinessFactor": 1,
          "specularFactor": [
            1,
            1,
            1
          ]
        }
      },
      "name": "Material.010"
    },
    {
      "doubleSided": true,
      "emissiveFactor": [
        0,
        0,
        0
      ],
      "extensions": {
        "KHR_materials_pbrSpecularGlossiness": {
          "diffuseFactor": [
            0.13286832160000001,
            0.086500462,
            0.064803266700000001,
            1
          ],
          "glossinessFactor": 0,
          "specularFactor": [
            0,
            0,
            0
          ]
        }
      },
      "name": "Material.009"
    },
    {
      "doubleSided": true,
      "emissiveFactor": [
        0,
        0,
        0
      ],
      "extensions": {
        "KHR_materials_pbrSpecularGlossiness": {
          "diffuseFactor": [
            0.057884675707352597,
            0.057884675707352597,
            0.057884675707352597,
            1
          ],
          "glossinessFactor": 0,
          "specularFactor": [
            0,
            0,
            0
          ]
        }
      },
      "name": "Material.008"
    },
    {
      "doubleSided": true,
      "emissiveFactor": [
        0,
        0,
        0
      ],
      "extensions": {
        "KHR_materials_pbrSpecularGlossiness": {
          "diffuseFactor": [
            0.0758955803843573,
            0.069244498647411792,
            0.069244498647411792,
            1
          ],
          "glossinessFactor": 0,
          "specularFactor": [
            0,
            0,
            0
          ]
        }
      },
      "name": "Material.004"
    },
    {
      "doubleSided": true,
      "emissiveFactor": [
        0,
        0,
        0
      ],
      "extensions": {
        "KHR_materials_pbrSpecularGlossiness": {
          "diffuseFactor": [
            0.051489715929434028,
            0.0494639847812606,
            0.0494639847812606,
            1
          ],
          "glossinessFactor": 0,
          "specularFactor": [
            0,
            0,
            0
          ]
        }
      },
      "name": "Material.002"
    },
    {
      "doubleSided": true,
      "emissiveFactor": [
        0,
        0,
        0
      ],
      "extensions": {
        "KHR_materials_pbrSpecularGlossiness": {
          "diffuseFactor": [
            0.09338070528334956,
            0.09338070528334956,
            0.09338070528334956,
            1
          ],
          "glossinessFactor": 0,
          "specularFactor": [
            0,
            0,
            0
          ]
        }
      },
      "name": "Material.006"
    },
    {
      "doubleSided": true,
      "emissiveFactor": [
        0,
        0,
        0
      ],
      "extensions": {
        "KHR_materials_pbrSpecularGlossiness": {
          "diffuseFactor": [
            0.048196686848504366,
            0.047765095594073242,
            0.047765095594073242,
            1
          ],
          "glossinessFactor": 0,
          "specularFactor": [
            0,
            0,
            0
          ]
        }
      },
      "name": "Material.001"
    },
    {
      "doubleSided": true,
      "emissiveFactor": [
        0,
        0,
        0
      ],
      "extensions": {
        "KHR_materials_pbrSpecularGlossiness": {
          "diffuseFactor": [
            0.080983231707317069,
            0.079362464158800411,
            0.079362464158800411,
            1
          ],
          "glossinessFactor": 1,
          "specularFactor": [
            0,
            0,
            0
          ]
        }
      },
      "name": "Material.007"
    },
    {
      "doubleSided": true,
      "emissiveFactor": [
        0,
        0,
        0
      ],
      "extensions": {
        "KHR_materials_pbrSpecularGlossiness": {
          "diffuseFactor": [
            0.046365455057205511,
            0.046365455057205511,
            0.046365455057205511,
            1
          ],
          "glossinessFactor": 0,
          "specularFactor": [
            0,
            0,
            0
          ]
        }
      },
      "name": "Material.005"
    },
    {
      "doubleSided": true,
      "emissiveFactor": [
        0,
        0,
        0
      ],
      "extensions": {
        "KHR_materials_pbrSpecularGlossiness": {
          "diffuseFactor": [
            0.090015850884717488,
            0.062971427892509174,
            0.049561501708755416,
            1
          ],
          "glossinessFactor": 0,
          "specularFactor": [
            0,
            0,
            0
          ]
        }
      },
      "name": "Material"
    }
  ],
  "meshes": [
    {
      "name": "Cube.015_0",
      "primitives": [
        {
          "attributes": {
            "NORMAL": 1,
            "POSITION": 0
          },
          "indices": 2,
          "material": 0,
          "mode": 4
        }
      ]
    },
    {
      "name": "Cube.015_1",
      "primitives": [
        {
          "attributes": {
            "NORMAL": 4,
            "POSITION": 3
          },
          "indices": 5,
          "material": 1,
          "mode": 4
        }
      ]
    },
    {
      "name": "Cube.015_2",
      "primitives": [
        {
          "attributes": {
            "NORMAL": 7,
            "POSITION": 6
          },
          "indices": 8,
          "material": 2,
          "mode": 4
        }
      ]
    },
    {
      "name": "Cube.015_3",
      "primitives": [
        {
          "attributes": {
            "NORMAL": 10,
            "POSITION": 9
          },
          "indices": 11,
          "material": 3,
          "mode": 4
        }
      ]
    },
    {
      "name": "Cube.015_4",
      "primitives": [
        {
          "attributes": {
            "NORMAL": 13,
            "POSITION": 12
          },
          "indices": 14,
          "material": 4,
          "mode": 4
        }
      ]
    },
    {
      "name": "Cube.015_5",
      "primitives": [
        {
          "attributes": {
            "NORMAL": 16,
            "POSITION": 15
          },
          "indices": 17,
          "material": 5,
          "mode": 4
        }
      ]
    },
    {
      "name": "Cube.015_6",
      "primitives": [
        {
          "attributes": {
            "NORMAL": 19,
            "POSITION": 18
          },
          "indices": 20,
          "material": 6,
          "mode": 4
        }
      ]
    },
    {
      "name": "Cube.015_7",
      "primitives": [
        {
          "attributes": {
            "NORMAL": 22,
            "POSITION": 21
          },
          "indices": 23,
          "material": 7,
          "mode": 4
        }
      ]
    },
    {
      "name": "Cube.015_8",
      "primitives": [
        {
          "attributes": {
            "NORMAL": 25,
            "POSITION": 24
          },
          "indices": 26,
          "material": 8,
          "mode": 4
        }
      ]
    },
    {
      "name": "Cube.015_9",
      "primitives": [
        {
          "attributes": {
            "NORMAL": 28,
            "POSITION": 27
          },
          "indices": 29,
          "material": 9,
          "mode": 4
        }
      ]
    },
    {
      "name": "Cube.015_10",
      "primitives": [
        {
          "attributes": {
            "NORMAL": 31,
            "POSITION": 30
          },
          "indices": 32,
          "material": 10,
          "mode": 4
        }
      ]
    }
  ],
  "nodes": [
    {
      "children": [
        1
      ],
      "name": "RootNode (gltf orientation matrix)",
      "rotation": [
        -0.70710678118654746,
        -0,
        -0,
        0.70710678118654757
      ]
    },
    {
      "children": [
        2
      ],
      "name": "RootNode (model correction matrix)"
    },
    {
      "children": [
        3,
        5
      ],
      "name": "Root"
    },
    {
      "children": [
        4
      ],
      "matrix": [
        0.0047000000000000011,
        0.42764000000000002,
        0.90393000000000001,
        0,
        -0.99999000000000005,
        0.0020100000000000005,
        0.0042500000000000003,
        0,
        0,
        -0.90394000000000008,
        0.42765000000000003,
        0,
        0.050860000000000009,
        -18.097020000000001,
        9.1873299999999993,
        1
      ],
      "name": "Lamp"
    },
    {
      "name": "Lamp"
    },
    {
      "children": [
        6,
        7
      ],
      "matrix": [
        0,
        0,
        -1,
        0,
        -0,
        1,
        -0,
        0,
        1,
        0,
        0,
        0,
        1.1600300000000001,
        -0,
        0.75927000000000011,
        1
      ],
      "name": "Armature"
    },
    {
      "name": "Armature_rootJoint"
    },
    {
      "children": [
        8,
        9,
        10,
        11,
        12,
        13,
        14,
        15,
        16,
        17,
        18
      ],
      "matrix": [
        0,
        -0,
        0.10975000000000001,
        0,
        -0,
        0.12554999999999999,
        0,
        0,
        -0.10975000000000001,
        -0,
        0,
        0,
        0.29560000000000003,
        0,
        -1.5834999999999999,
        1
      ],
      "name": "Cube.015"
    },
    {
      "mesh": 0,
      "name": "Cube.015_0"
    },
    {
      "mesh": 1,
      "name": "Cube.015_1"
    },
    {
      "mesh": 2,
      "name": "Cube.015_2"
    },
    {
      "mesh": 3,
      "name": "Cube.015_3"
    },
    {
      "mesh": 4,
      "name": "Cube.015_4"
    },
    {
      "mesh": 5,
      "name": "Cube.015_5"
    },
    {
      "mesh": 6,
      "name": "Cube.015_6"
    },
    {
      "mesh": 7,
      "name": "Cube.015_7"
    },
    {
      "mesh": 8,
      "name": "Cube.015_8"
    },
    {
      "mesh": 9,
      "name": "Cube.015_9"
    },
    {
      "mesh": 10,
      "name": "Cube.015_10"
    }
  ],
  "scene": 0,
  "scenes": [
    {
      "name": "OSG_Scene",
      "nodes": [
        0
      ]
    }
  ],
  "skins": [
    {
      "inverseBindMatrices": 33,
      "joints": [
        6
      ],
      "skeleton": 6
    }
  ]
}

